<?xml version="1.0"?>
<svg xmlns="http://www.w3.org/2000/svg" xmlns:xlink="http://www.w3.org/1999/xlink" xmlns:svgjs="http://svgjs.com/svgjs" version="1.1" width="512" height="512" x="0" y="0" viewBox="0 0 512 512" style="enable-background:new 0 0 512 512" xml:space="preserve" class=""><g>
<g xmlns="http://www.w3.org/2000/svg">
	<path style="" d="M484.999,221.8L464,33l-40.5,28.8C377.3,21.899,317.5,0,256,0C115.3,0,0,115.3,0,256v15h90v-15   c0-90.901,75.099-166,166-166c32.1,0,64.3,9.3,90.7,26.7l-28.799,20.698L484.999,221.8z" fill="#64aadd" data-original="#54e360" class=""/>
	<path style="" d="M512,241v15c0,142.5-116.8,256-256,256c-61.5,0-121.3-21.901-167.5-61.8l-40.501,28.799   L27.001,290.2l167.098,84.399L165.3,395.3c26.4,17.4,58.6,26.7,90.7,26.7c90.901,0,166-75.101,166-166v-15H512z" fill="#64aadd" data-original="#54e360" class=""/>
</g>
<g xmlns="http://www.w3.org/2000/svg">
	<path style="" d="M346.7,116.7C320.3,99.3,288.1,90,256,90V0c61.5,0,121.3,21.899,167.5,61.8l40.501-28.801   L485,221.799l-167.098-84.401L346.7,116.7z" fill="#1f7bbe" data-original="#00cc71" class=""/>
	<path style="" d="M512,241v15c0,142.5-116.8,256-256,256v-90c90.901,0,166-75.101,166-166v-15H512z" fill="#1f7bbe" data-original="#00cc71" class=""/>
</g>
<g xmlns="http://www.w3.org/2000/svg">
</g>
<g xmlns="http://www.w3.org/2000/svg">
</g>
<g xmlns="http://www.w3.org/2000/svg">
</g>
<g xmlns="http://www.w3.org/2000/svg">
</g>
<g xmlns="http://www.w3.org/2000/svg">
</g>
<g xmlns="http://www.w3.org/2000/svg">
</g>
<g xmlns="http://www.w3.org/2000/svg">
</g>
<g xmlns="http://www.w3.org/2000/svg">
</g>
<g xmlns="http://www.w3.org/2000/svg">
</g>
<g xmlns="http://www.w3.org/2000/svg">
</g>
<g xmlns="http://www.w3.org/2000/svg">
</g>
<g xmlns="http://www.w3.org/2000/svg">
</g>
<g xmlns="http://www.w3.org/2000/svg">
</g>
<g xmlns="http://www.w3.org/2000/svg">
</g>
<g xmlns="http://www.w3.org/2000/svg">
</g>
</g></svg>
