<svg width="17" height="17" viewBox="0 0 17 17" fill="none" xmlns="http://www.w3.org/2000/svg">
<path d="M8.33333 0C3.73333 0 0 3.73333 0 8.33333C0 12.9333 3.73333 16.6667 8.33333 16.6667C12.9333 16.6667 16.6667 12.9333 16.6667 8.33333C16.6667 3.73333 12.9333 0 8.33333 0ZM8.33333 2.5C9.71667 2.5 10.8333 3.61667 10.8333 5C10.8333 6.38333 9.71667 7.5 8.33333 7.5C6.95 7.5 5.83333 6.38333 5.83333 5C5.83333 3.61667 6.95 2.5 8.33333 2.5ZM8.33333 14.3333C6.25 14.3333 4.40833 13.2667 3.33333 11.65C3.35833 9.99167 6.66667 9.08333 8.33333 9.08333C9.99167 9.08333 13.3083 9.99167 13.3333 11.65C12.2583 13.2667 10.4167 14.3333 8.33333 14.3333Z" fill="#A8A9AA"/>
</svg>
