<?xml version="1.0"?>
<svg xmlns="http://www.w3.org/2000/svg" xmlns:xlink="http://www.w3.org/1999/xlink" xmlns:svgjs="http://svgjs.com/svgjs" version="1.1" width="512" height="512" x="0" y="0" viewBox="0 0 64 64" style="enable-background:new 0 0 512 512" xml:space="preserve"><g><path xmlns="http://www.w3.org/2000/svg" d="m15 57h8v2h-8z" fill="#ffffff" data-original="#000000" style=""/><path xmlns="http://www.w3.org/2000/svg" d="m47 25.618 11.236-5.618-11.236-5.618zm2-8 4.764 2.382-4.764 2.382z" fill="#ffffff" data-original="#000000" style=""/><path xmlns="http://www.w3.org/2000/svg" d="m60 10h-16c-1.654 0-3 1.346-3 3v14c0 1.654 1.346 3 3 3h6v9c0 1.103-.897 2-2 2h-5.111c1.301-1.272 2.111-3.042 2.111-5 0-3.859-3.141-7-7-7-.34 0-.672.033-1 .08v-23.08c0-2.757-2.243-5-5-5h-26c-2.757 0-5 2.243-5 5v52c0 2.757 2.243 5 5 5h19 1.943 19.057v-11.913c0-.726.518-1.347 1.231-1.477l3.199-.582c3.807-.691 6.57-4.002 6.57-7.87v-11.158h3c1.654 0 3-1.346 3-3v-14c0-1.654-1.346-3-3-3zm-21.03 41.616-.97.97-.97-.97.615-8.616h.711zm-13.544-2.616h-18.426v-38h24v25c0 2.123.954 4.025 2.452 5.31-3.868.922-6.944 3.886-8.026 7.69zm17.574-13c0 2.757-2.243 5-5 5s-5-2.243-5-5 2.243-5 5-5 5 2.243 5 5zm-30-33h12v1c0 .552-.448 1-1 1h-10c-.552 0-1-.448-1-1zm-7 0h5v1c0 1.654 1.346 3 3 3h10c1.654 0 3-1.346 3-3v-1h5c1.654 0 3 1.346 3 3v23.685c-.749.357-1.426.839-2 1.426v-20.111c0-1.103-.897-2-2-2h-24c-1.103 0-2 .897-2 2v38c0 1.103.897 2 2 2h18.051c-.03.33-.051.662-.051 1v1h-22v-47c0-1.654 1.346-3 3-3zm0 58c-1.654 0-3-1.346-3-3v-3h22v6zm49-19.842c0 2.901-2.072 5.384-4.927 5.903l-3.199.581c-1.665.303-2.874 1.752-2.874 3.445v9.913h-12v-13h-2v13h-3v-9c0-4.841 3.844-8.79 8.639-8.982l-.669 9.365 3.03 3.03 3.03-3.03-.67-9.383h7.64c2.206 0 4-1.794 4-4v-9.5c0-.827.673-1.5 1.5-1.5s1.5.673 1.5 1.5zm6-14.158c0 .552-.448 1-1 1h-3.351c-.564-1.178-1.758-2-3.149-2s-2.585.822-3.149 2h-6.351c-.552 0-1-.448-1-1v-14c0-.552.448-1 1-1h16c.552 0 1 .448 1 1z" fill="#ffffff" data-original="#000000" style=""/><path xmlns="http://www.w3.org/2000/svg" d="m9 35h10v-10h-10zm2-8h6v6h-6z" fill="#ffffff" data-original="#000000" style=""/><path xmlns="http://www.w3.org/2000/svg" d="m9 47h10v-10h-10zm2-8h6v6h-6z" fill="#ffffff" data-original="#000000" style=""/><path xmlns="http://www.w3.org/2000/svg" d="m21.707 13.707-1.414-1.414-1.293 1.293v-.586h-10v10h10v-6.586zm-10.707 1.293h6v.586l-3 3-1.293-1.293-1.414 1.414 2.293 2.293h-2.586zm6 6h-2.586l2.586-2.586z" fill="#ffffff" data-original="#000000" style=""/><path xmlns="http://www.w3.org/2000/svg" d="m21 21h8v2h-8z" fill="#ffffff" data-original="#000000" style=""/><path xmlns="http://www.w3.org/2000/svg" d="m21 17h8v2h-8z" fill="#ffffff" data-original="#000000" style=""/><path xmlns="http://www.w3.org/2000/svg" d="m23 13h6v2h-6z" fill="#ffffff" data-original="#000000" style=""/><path xmlns="http://www.w3.org/2000/svg" d="m21 25h8v2h-8z" fill="#ffffff" data-original="#000000" style=""/><path xmlns="http://www.w3.org/2000/svg" d="m21 29h8v2h-8z" fill="#ffffff" data-original="#000000" style=""/><path xmlns="http://www.w3.org/2000/svg" d="m21 33h2v2h-2z" fill="#ffffff" data-original="#000000" style=""/><path xmlns="http://www.w3.org/2000/svg" d="m25 33h2v2h-2z" fill="#ffffff" data-original="#000000" style=""/><path xmlns="http://www.w3.org/2000/svg" d="m21 37h8v2h-8z" fill="#ffffff" data-original="#000000" style=""/><path xmlns="http://www.w3.org/2000/svg" d="m21 41h4v2h-4z" fill="#ffffff" data-original="#000000" style=""/><path xmlns="http://www.w3.org/2000/svg" d="m21 45h4v2h-4z" fill="#ffffff" data-original="#000000" style=""/></g></svg>
