<?xml version="1.0"?>
<svg xmlns="http://www.w3.org/2000/svg" xmlns:xlink="http://www.w3.org/1999/xlink" xmlns:svgjs="http://svgjs.com/svgjs" version="1.1" width="512" height="512" x="0" y="0" viewBox="0 0 128 128" style="enable-background:new 0 0 512 512" xml:space="preserve"><g><path xmlns="http://www.w3.org/2000/svg" d="M122.25,29.187H104.1a13.48,13.48,0,0,0,4.48-10.027,11.75,11.75,0,0,0-17.028-10.5L73.217,17.885A7.7,7.7,0,0,0,68.5,16.27h-9a7.7,7.7,0,0,0-4.717,1.615L36.445,8.662a11.75,11.75,0,0,0-17.028,10.5A13.48,13.48,0,0,0,23.9,29.187H5.75A5.757,5.757,0,0,0,0,34.937V43.77a5.757,5.757,0,0,0,5.75,5.75H8.958v69.334a1.75,1.75,0,0,0,1.75,1.75H117.292a1.75,1.75,0,0,0,1.75-1.75V49.52h3.208A5.757,5.757,0,0,0,128,43.77V34.937A5.757,5.757,0,0,0,122.25,29.187Zm-29.123-17.4a8.249,8.249,0,0,1,11.956,7.371A10.038,10.038,0,0,1,95.056,29.187H76.25v-.3l18.778-5.952A1.75,1.75,0,1,0,93.972,19.6L76.25,25.218a10.06,10.06,0,0,0-.769-4.555ZM68.5,19.77a4.329,4.329,0,0,1,4.25,4.25v5.167H55.25V24.02a4.329,4.329,0,0,1,4.25-4.25Zm-45.583-.61a8.238,8.238,0,0,1,11.956-7.371l17.646,8.874a10.063,10.063,0,0,0-.769,4.555L34.028,19.6a1.75,1.75,0,1,0-1.056,3.336L51.75,28.89v.3H32.944A10.038,10.038,0,0,1,22.917,19.16ZM3.5,43.77V34.937a2.253,2.253,0,0,1,2.25-2.25h46V46.02h-46A2.253,2.253,0,0,1,3.5,43.77Zm8.958,5.75H51.75V117.1H12.458ZM55.25,32.687h17.5V117.1H55.25ZM115.542,117.1H76.25V49.52h39.292ZM124.5,43.77a2.253,2.253,0,0,1-2.25,2.25h-46V32.687h46a2.253,2.253,0,0,1,2.25,2.25Z" fill="#1f7bbe" data-original="#000000" style=""/></g></svg>
