<?xml version="1.0"?>
<svg xmlns="http://www.w3.org/2000/svg" xmlns:xlink="http://www.w3.org/1999/xlink" xmlns:svgjs="http://svgjs.com/svgjs" version="1.1" width="512" height="512" x="0" y="0" viewBox="0 0 512 512" style="enable-background:new 0 0 512 512" xml:space="preserve" class=""><g><path xmlns="http://www.w3.org/2000/svg" d="m49 0v512h309.213l104.787-104.787v-407.213zm30 30h354v349.667h-102.334v102.333h-251.666zm339.12 379.667-57.453 57.453v-57.453z" fill="#ffffff" data-original="#000000" style=""/><path xmlns="http://www.w3.org/2000/svg" d="m133.333 315.667h31.499v30h-31.499z" fill="#ffffff" data-original="#000000" style=""/><path xmlns="http://www.w3.org/2000/svg" d="m194.832 315.667h183.834v30h-183.834z" fill="#ffffff" data-original="#000000" style=""/><path xmlns="http://www.w3.org/2000/svg" d="m133.333 379.667h31.499v30h-31.499z" fill="#ffffff" data-original="#000000" style=""/><path xmlns="http://www.w3.org/2000/svg" d="m194.832 379.667h61.168v30h-61.168z" fill="#ffffff" data-original="#000000" style=""/><path xmlns="http://www.w3.org/2000/svg" d="m184.98 234.324 17.337-10.009c10.038 11.143 23.486 19.151 38.683 22.373v19.98h30v-19.98c15.198-3.222 28.645-11.23 38.683-22.373l17.336 10.009 15-25.98-17.31-9.994c2.296-7.043 3.554-14.55 3.554-22.349s-1.258-15.306-3.554-22.349l17.31-9.994-15-25.981-17.336 10.009c-10.039-11.143-23.486-19.151-38.683-22.372v-19.981h-30v19.979c-15.198 3.222-28.645 11.23-38.683 22.373l-17.337-10.009-15 25.981 17.311 9.994c-2.296 7.042-3.554 14.55-3.554 22.348 0 7.799 1.258 15.306 3.554 22.349l-17.311 9.994zm28.757-58.324c0-23.304 18.959-42.263 42.263-42.263s42.263 18.959 42.263 42.263-18.959 42.263-42.263 42.263-42.263-18.959-42.263-42.263z" fill="#ffffff" data-original="#000000" style=""/></g></svg>
