<?xml version="1.0"?>
<svg xmlns="http://www.w3.org/2000/svg" xmlns:xlink="http://www.w3.org/1999/xlink" xmlns:svgjs="http://svgjs.com/svgjs" version="1.1" width="512" height="512" x="0" y="0" viewBox="0 0 512 512" style="enable-background:new 0 0 512 512" xml:space="preserve" class=""><g><g xmlns="http://www.w3.org/2000/svg"><path d="m502.856 417.887-9.488-52.385-4.216-24.354c-.352-2.032-1.324-3.906-2.783-5.365l-24.91-24.908-307.972-307.947c-3.905-3.904-10.236-3.904-14.142 0l-63.102 63.098c-1.875 1.875-2.929 4.419-2.929 7.071s1.054 5.196 2.929 7.071l74.139 74.133.005.005 233.828 233.81 24.91 24.908c1.458 1.459 3.333 2.431 5.365 2.782l24.356 4.216 52.388 9.487c.593.107 1.189.16 1.782.16 2.627 0 5.179-1.037 7.071-2.929 2.319-2.319 3.354-5.626 2.769-8.853zm-97.324-74.393c.218 1.542.444 3.011.661 4.417 1.687 10.951 2.14 13.894-4.069 20.103-1.909 1.909-4.672 2.651-6.796 2.931l-223.732-223.715 48.96-48.956 223.733 223.715c-.28 2.122-1.022 4.885-2.931 6.793-6.21 6.208-9.153 5.756-20.104 4.069-1.407-.217-2.876-.442-4.418-.661-3.113-.443-6.251.607-8.474 2.83s-3.271 5.361-2.83 8.474zm-266.5-228.825 48.96-48.956 18.42 18.419-48.96 48.956zm7.385-90.528 27.434 27.431-48.96 48.956-27.434-27.431zm264.388 362.28c1.883-1.134 3.73-2.536 5.46-4.265 10.119-10.119 11.56-19.229 10.842-28.391 9.158.718 18.273-.723 28.392-10.841 1.73-1.73 3.131-3.577 4.266-5.46l10.222 10.221 2.793 16.135-35.616 35.613-16.139-2.793zm50.342 17.315 14.465-14.464 1.47-1.47 3.524 19.458z" fill="#ffffff" data-original="#000000" style="" class=""/><path d="m76.024 454.963h218.091c4.045 0 7.691-2.437 9.239-6.173 1.548-3.737.692-8.038-2.168-10.898l-218.091-218.074c-2.861-2.861-7.162-3.716-10.898-2.167-3.736 1.548-6.173 5.193-6.173 9.238v218.074c0 5.523 4.477 10 10 10zm10-203.933 183.947 183.934h-183.947z" fill="#ffffff" data-original="#000000" style="" class=""/><path d="m26.054 82.12c-2.861-2.86-7.163-3.715-10.898-2.167-3.736 1.548-6.173 5.193-6.173 9.238v412.809c0 5.522 4.477 10 10 10h412.841c4.044 0 7.691-2.437 9.239-6.174 1.548-3.736.692-8.038-2.168-10.897zm2.929 409.88v-378.668l378.698 378.668z" fill="#ffffff" data-original="#000000" style="" class=""/></g></g></svg>
